<svg xmlns="http://www.w3.org/2000/svg" xmlns:xlink="http://www.w3.org/1999/xlink" width="1159" zoomAndPan="magnify" viewBox="0 0 869.25 599.999999" height="800" preserveAspectRatio="xMidYMid meet" version="1.0"><defs><g/><clipPath id="fd20d882fc"><path d="M 170.730469 349 L 453 349 L 453 599.742188 L 170.730469 599.742188 Z M 170.730469 349 " clip-rule="nonzero"/></clipPath><clipPath id="2962012575"><path d="M 170.730469 117 L 391 117 L 391 375 L 170.730469 375 Z M 170.730469 117 " clip-rule="nonzero"/></clipPath><clipPath id="5845d07fe4"><path d="M 272 0.257812 L 579 0.257812 L 579 269 L 272 269 Z M 272 0.257812 " clip-rule="nonzero"/></clipPath><clipPath id="97b85e6058"><path d="M 474 138 L 697.527344 138 L 697.527344 330 L 474 330 Z M 474 138 " clip-rule="nonzero"/></clipPath></defs><g clip-path="url(#fd20d882fc)"><path fill="#ff751f" d="M 419.980469 573.242188 C 419.980469 573.242188 444.195312 561.414062 445.886719 522.558594 C 447.574219 483.699219 458.839844 398.09375 448.703125 390.773438 C 438.566406 383.453125 417.726562 384.578125 412.097656 387.394531 C 406.464844 390.210938 383.375 453.851562 355.214844 476.941406 C 327.058594 500.03125 306.21875 505.664062 303.40625 489.894531 C 300.589844 474.125 342.265625 467.929688 361.410156 441.460938 C 380.558594 414.992188 405.902344 387.960938 399.144531 375.570312 C 392.386719 363.179688 395.441406 341.777344 378.144531 353.042969 C 360.847656 364.304688 325.933594 390.773438 254.972656 408.234375 C 184.011719 425.691406 155.289062 483.699219 178.945312 507.914062 C 202.597656 532.128906 244.835938 538.328125 249.339844 560.851562 C 253.84375 583.378906 258.351562 605.90625 285.382812 598.023438 C 312.414062 590.136719 320.863281 576.058594 344.515625 588.449219 C 368.167969 600.839844 415.558594 576.167969 419.980469 573.242188 Z M 419.980469 573.242188 " fill-opacity="1" fill-rule="nonzero"/></g><g clip-path="url(#2962012575)"><path fill="#ff751f" d="M 290.449219 368.246094 C 292.4375 367.832031 368.730469 352.480469 373.800781 340.089844 C 378.867188 327.699219 384.5 318.6875 376.050781 317.5625 C 367.605469 316.4375 299.460938 322.066406 279.1875 308.550781 C 258.914062 295.035156 249.339844 279.828125 262.855469 279.265625 C 276.371094 278.703125 284.816406 296.726562 311.851562 299.539062 C 338.882812 302.355469 384.5 309.675781 386.753906 301.230469 C 389.003906 292.78125 398.578125 286.023438 377.742188 274.761719 C 356.90625 263.496094 306.21875 233.648438 282.003906 193.664062 C 257.785156 153.679688 287.632812 122.140625 231.878906 118.199219 C 176.125 114.257812 190.769531 168.320312 199.214844 197.605469 C 207.664062 226.890625 172.25 219.570312 170.808594 247.726562 C 169.367188 275.886719 206.539062 277.578125 195.273438 306.296875 C 184.011719 335.019531 168.804688 393.589844 290.449219 368.246094 Z M 290.449219 368.246094 " fill-opacity="1" fill-rule="nonzero"/></g><g clip-path="url(#5845d07fe4)"><path fill="#ff751f" d="M 400.269531 267.441406 C 400.269531 267.441406 426.175781 273.636719 423.359375 255.613281 C 420.542969 237.589844 397.453125 171.136719 397.453125 147.484375 C 397.453125 123.832031 408.71875 108.625 420.542969 120.453125 C 432.371094 132.277344 435.605469 233.648438 439.621094 242.097656 C 443.632812 250.542969 462.78125 248.855469 467.851562 240.40625 C 472.917969 231.960938 501.640625 179.023438 519.664062 158.183594 C 537.683594 137.347656 587.242188 93.417969 577.667969 50.054688 C 568.09375 6.691406 525.855469 48.929688 496.570312 34.847656 C 467.285156 20.769531 445.886719 -10.765625 421.105469 4.4375 C 396.328125 19.644531 403.648438 60.191406 357.46875 57.9375 C 311.289062 55.6875 278.625 36.539062 272.429688 74.269531 C 266.234375 112.003906 329.3125 165.503906 356.90625 194.789062 C 384.5 224.074219 383.9375 263.5 400.269531 267.441406 Z M 400.269531 267.441406 " fill-opacity="1" fill-rule="nonzero"/></g><g clip-path="url(#97b85e6058)"><path fill="#ff751f" d="M 490.378906 273.636719 C 490.378906 273.636719 467.851562 263.5 476.296875 252.234375 C 484.746094 240.972656 495.445312 238.15625 529.234375 198.171875 C 563.027344 158.183594 570.347656 129.464844 593.4375 140.726562 C 616.527344 151.992188 614.273438 170.574219 630.605469 164.941406 C 646.9375 159.3125 680.730469 136.222656 694.246094 171.703125 C 707.761719 207.179688 675.660156 214.503906 672.84375 241.535156 C 670.027344 268.566406 703.820312 298.414062 676.785156 316.4375 C 649.753906 334.457031 628.355469 332.207031 583.863281 318.6875 C 539.375 305.171875 512.902344 314.183594 507.273438 302.917969 C 501.640625 291.65625 498.824219 287.714844 505.019531 284.898438 C 511.214844 282.082031 597.941406 260.121094 598.507812 249.417969 C 599.070312 238.71875 532.613281 263.300781 519.097656 268.46875 C 505.582031 273.636719 490.378906 273.636719 490.378906 273.636719 Z M 490.378906 273.636719 " fill-opacity="1" fill-rule="nonzero"/></g><path fill="#ff751f" d="M 653.132812 407.105469 C 652.378906 405.222656 647.5 367.6875 600.195312 362.617188 C 552.890625 357.546875 520.226562 320.378906 510.085938 326.011719 C 499.949219 331.640625 487.5625 361.472656 496.007812 366.269531 C 504.457031 371.0625 543.878906 401.476562 564.152344 419.496094 C 584.425781 437.519531 591.925781 468.492188 578.882812 469.617188 C 565.84375 470.746094 543.878906 427.378906 517.410156 403.164062 C 490.941406 378.949219 486.433594 372.78125 481.367188 374.457031 C 476.296875 376.132812 457.714844 380.636719 461.09375 387.957031 C 464.472656 395.28125 481.367188 439.769531 494.320312 467.367188 C 507.273438 494.960938 501.078125 521.992188 517.972656 545.082031 C 534.867188 568.175781 536.558594 569.300781 569.222656 565.359375 C 601.886719 561.414062 614.839844 576.621094 636.238281 559.164062 C 657.640625 541.703125 656.511719 523.121094 649.753906 491.019531 C 642.996094 458.917969 673.40625 457.792969 653.132812 407.105469 Z M 653.132812 407.105469 " fill-opacity="1" fill-rule="nonzero"/><path fill="#ff751f" d="M 480.804688 325.429688 C 480.804688 325.429688 498.074219 319.628906 491.691406 301.230469 C 485.308594 282.832031 471.417969 286.960938 471.417969 286.960938 C 471.417969 286.960938 479.675781 271.945312 462.78125 266.3125 C 445.886719 260.679688 439.621094 282.832031 439.621094 282.832031 C 439.621094 282.832031 421.859375 273.445312 407.964844 281.707031 C 394.074219 289.964844 407.964844 310.992188 407.964844 310.992188 C 407.964844 310.992188 393.375 309.832031 390.90625 325.429688 C 388.441406 341.027344 401.582031 352.289062 415.851562 347.785156 C 415.851562 347.785156 408.757812 363.175781 425.445312 371.0625 C 442.132812 378.945312 445.886719 359.796875 445.886719 359.796875 C 445.886719 359.796875 466.910156 369.183594 477.800781 358.296875 C 488.6875 347.410156 488.6875 331.234375 480.804688 325.429688 Z M 480.804688 325.429688 " fill-opacity="1" fill-rule="nonzero"/><g fill="#1b1b1b" fill-opacity="1"><g transform="translate(96.738954, 449.019931)"><g><path d="M 111.359375 -134.046875 C 114.828125 -117.296875 118.21875 -100.519531 121.53125 -83.71875 C 124.84375 -66.925781 128.238281 -50.15625 131.71875 -33.40625 C 132.757812 -28.550781 132.269531 -24.421875 130.25 -21.015625 C 128.238281 -17.617188 125.460938 -15.132812 121.921875 -13.5625 C 118.378906 -11.988281 114.625 -11.367188 110.65625 -11.703125 C 106.6875 -12.046875 103.144531 -13.421875 100.03125 -15.828125 C 96.914062 -18.234375 94.84375 -21.863281 93.8125 -26.71875 C 92.75 -31.738281 91.726562 -36.769531 90.75 -41.8125 C 89.78125 -46.851562 88.757812 -51.882812 87.6875 -56.90625 L 49.5625 -51.484375 C 49.320312 -45.003906 49.171875 -38.457031 49.109375 -31.84375 C 49.054688 -25.238281 49.007812 -18.632812 48.96875 -12.03125 C 48.957031 -7.164062 47.671875 -3.375 45.109375 -0.65625 C 42.546875 2.0625 39.328125 3.757812 35.453125 4.4375 C 31.578125 5.125 27.726562 4.757812 23.90625 3.34375 C 20.09375 1.925781 16.90625 -0.378906 14.34375 -3.578125 C 11.789062 -6.773438 10.519531 -10.8125 10.53125 -15.6875 C 10.644531 -32.71875 11.171875 -49.65625 12.109375 -66.5 C 13.054688 -83.34375 15.625 -100.046875 19.8125 -116.609375 C 21.851562 -124.785156 24.710938 -133.710938 28.390625 -143.390625 C 32.066406 -153.078125 36.585938 -162.175781 41.953125 -170.6875 C 47.316406 -179.195312 53.726562 -185.929688 61.1875 -190.890625 C 68.21875 -195.429688 74.269531 -197.109375 79.34375 -195.921875 C 84.414062 -194.734375 88.765625 -191.71875 92.390625 -186.875 C 96.023438 -182.039062 99.066406 -176.363281 101.515625 -169.84375 C 103.972656 -163.332031 105.992188 -156.832031 107.578125 -150.34375 C 109.160156 -143.851562 110.421875 -138.421875 111.359375 -134.046875 Z M 54.078125 -95.28125 C 54.023438 -94.582031 53.929688 -93.875 53.796875 -93.15625 C 53.660156 -92.4375 53.492188 -91.710938 53.296875 -90.984375 C 57.867188 -91.609375 62.359375 -92.222656 66.765625 -92.828125 C 71.171875 -93.441406 75.578125 -94.050781 79.984375 -94.65625 C 78.878906 -100.019531 77.800781 -105.429688 76.75 -110.890625 C 75.695312 -116.347656 74.59375 -121.835938 73.4375 -127.359375 C 72.882812 -129.523438 72.390625 -131.828125 71.953125 -134.265625 C 71.523438 -136.710938 71.085938 -139.203125 70.640625 -141.734375 C 68.378906 -137.859375 66.519531 -134.144531 65.0625 -130.59375 C 62.582031 -124.9375 60.425781 -119.164062 58.59375 -113.28125 C 56.769531 -107.394531 55.265625 -101.394531 54.078125 -95.28125 Z M 54.078125 -95.28125 "/></g></g></g><g fill="#1b1b1b" fill-opacity="1"><g transform="translate(218.015614, 426.193355)"><g><path d="M 99.96875 -145.4375 C 101.257812 -150.1875 103.601562 -153.742188 107 -156.109375 C 110.394531 -158.472656 114.097656 -159.789062 118.109375 -160.0625 C 122.117188 -160.332031 125.875 -159.632812 129.375 -157.96875 C 132.882812 -156.300781 135.515625 -153.828125 137.265625 -150.546875 C 139.015625 -147.273438 139.238281 -143.253906 137.9375 -138.484375 C 125.8125 -94.984375 111.71875 -52.503906 95.65625 -11.046875 C 93.851562 -6.253906 90.828125 -3.066406 86.578125 -1.484375 C 82.335938 0.0859375 77.96875 0.257812 73.46875 -0.96875 C 68.976562 -2.207031 65.378906 -4.59375 62.671875 -8.125 C 52.984375 -20.488281 44.703125 -33.925781 37.828125 -48.4375 C 30.960938 -62.945312 24.710938 -77.769531 19.078125 -92.90625 C 13.441406 -108.039062 7.671875 -122.734375 1.765625 -136.984375 C -0.191406 -141.617188 -0.519531 -145.753906 0.78125 -149.390625 C 2.09375 -153.023438 4.363281 -155.972656 7.59375 -158.234375 C 10.832031 -160.503906 14.410156 -161.8125 18.328125 -162.15625 C 22.253906 -162.507812 26.015625 -161.769531 29.609375 -159.9375 C 33.210938 -158.101562 35.898438 -154.945312 37.671875 -150.46875 C 43.566406 -136.40625 49.285156 -121.800781 54.828125 -106.65625 C 60.378906 -91.507812 66.707031 -76.863281 73.8125 -62.71875 C 78.601562 -76.375 83.175781 -90.09375 87.53125 -103.875 C 91.894531 -117.664062 96.039062 -131.519531 99.96875 -145.4375 Z M 99.96875 -145.4375 "/></g></g></g><g fill="#1b1b1b" fill-opacity="1"><g transform="translate(356.412118, 413.389864)"><g><path d="M 106.75 -54.703125 C 111.707031 -54.566406 115.691406 -53.132812 118.703125 -50.40625 C 121.710938 -47.6875 123.695312 -44.398438 124.65625 -40.546875 C 125.625 -36.703125 125.644531 -32.894531 124.71875 -29.125 C 123.800781 -25.363281 121.847656 -22.234375 118.859375 -19.734375 C 115.878906 -17.242188 111.910156 -16.066406 106.953125 -16.203125 C 95.316406 -16.648438 83.679688 -16.546875 72.046875 -15.890625 C 60.410156 -15.234375 48.78125 -13.9375 37.15625 -12 C 33.5625 -11.457031 29.789062 -11.820312 25.84375 -13.09375 C 21.90625 -14.363281 18.601562 -16.441406 15.9375 -19.328125 C 13.269531 -22.222656 12.269531 -25.984375 12.9375 -30.609375 C 15.71875 -54.242188 18.800781 -77.875 22.1875 -101.5 C 25.582031 -125.132812 29.269531 -148.769531 33.25 -172.40625 C 33.75 -175.3125 34.765625 -177.796875 36.296875 -179.859375 C 37.648438 -182.265625 39.601562 -184.285156 42.15625 -185.921875 C 44.71875 -187.554688 47.882812 -188.46875 51.65625 -188.65625 C 70.132812 -189.269531 88.617188 -189.023438 107.109375 -187.921875 C 112.066406 -187.609375 116.046875 -186.046875 119.046875 -183.234375 C 122.054688 -180.429688 124.039062 -177.109375 125 -173.265625 C 125.96875 -169.421875 125.988281 -165.613281 125.0625 -161.84375 C 124.144531 -158.070312 122.191406 -154.976562 119.203125 -152.5625 C 116.222656 -150.15625 112.253906 -149.109375 107.296875 -149.421875 C 94.628906 -150.210938 81.707031 -150.578125 68.53125 -150.515625 C 67.695312 -145.535156 66.863281 -140.5625 66.03125 -135.59375 C 65.207031 -130.632812 64.46875 -125.671875 63.8125 -120.703125 C 70.832031 -120.578125 77.59375 -120.1875 84.09375 -119.53125 C 89.226562 -119.039062 93.726562 -117.132812 97.59375 -113.8125 C 101.457031 -110.5 103.40625 -106.019531 103.4375 -100.375 C 103.457031 -97.125 102.578125 -93.953125 100.796875 -90.859375 C 99.015625 -87.773438 96.671875 -85.28125 93.765625 -83.375 C 90.867188 -81.476562 87.710938 -80.695312 84.296875 -81.03125 C 75.554688 -81.832031 66.820312 -82.210938 58.09375 -82.171875 C 57.4375 -77.378906 56.773438 -72.5 56.109375 -67.53125 C 55.453125 -62.5625 54.800781 -57.6875 54.15625 -52.90625 C 62.863281 -53.800781 71.582031 -54.398438 80.3125 -54.703125 C 89.039062 -55.003906 97.851562 -55.003906 106.75 -54.703125 Z M 106.75 -54.703125 "/></g></g></g><g fill="#1b1b1b" fill-opacity="1"><g transform="translate(471.076918, 411.297746)"><g><path d="M 147.484375 -12.6875 C 150.054688 -8.382812 150.945312 -4.414062 150.15625 -0.78125 C 149.363281 2.84375 147.492188 5.914062 144.546875 8.4375 C 141.609375 10.957031 138.175781 12.617188 134.25 13.421875 C 130.320312 14.234375 126.394531 13.925781 122.46875 12.5 C 118.550781 11.082031 115.289062 8.300781 112.6875 4.15625 C 105.832031 -7.019531 98.019531 -17.414062 89.25 -27.03125 C 80.476562 -36.644531 70.914062 -45.457031 60.5625 -53.46875 C 58.90625 -43.46875 57.300781 -33.421875 55.75 -23.328125 C 54.195312 -13.234375 52.597656 -3.191406 50.953125 6.796875 C 50.234375 11.722656 48.347656 15.523438 45.296875 18.203125 C 42.253906 20.890625 38.734375 22.59375 34.734375 23.3125 C 30.734375 24.03125 26.929688 23.773438 23.328125 22.546875 C 19.734375 21.316406 16.859375 19.113281 14.703125 15.9375 C 12.554688 12.769531 11.847656 8.726562 12.578125 3.8125 C 15.554688 -14.664062 18.222656 -33.507812 20.578125 -52.71875 C 22.941406 -71.925781 26.71875 -90.59375 31.90625 -108.71875 C 34.53125 -118.132812 38.742188 -127.078125 44.546875 -135.546875 C 50.359375 -144.015625 57.457031 -150.835938 65.84375 -156.015625 C 74.226562 -161.203125 83.726562 -163.640625 94.34375 -163.328125 C 101.707031 -163.097656 108.550781 -161.191406 114.875 -157.609375 C 121.207031 -154.035156 126.46875 -149.335938 130.65625 -143.515625 C 134.84375 -137.691406 137.476562 -131.304688 138.5625 -124.359375 C 139.644531 -117.410156 138.703125 -110.363281 135.734375 -103.21875 C 132.785156 -96.050781 128.367188 -89.4375 122.484375 -83.375 C 116.609375 -77.320312 109.984375 -72.175781 102.609375 -67.9375 C 119.710938 -51.6875 134.671875 -33.269531 147.484375 -12.6875 Z M 85.546875 -103.265625 C 86.648438 -104.203125 88.476562 -105.644531 91.03125 -107.59375 C 93.582031 -109.539062 95.890625 -111.632812 97.953125 -113.875 C 100.015625 -116.125 100.929688 -117.941406 100.703125 -119.328125 C 100.296875 -122.960938 99.125 -125.023438 97.1875 -125.515625 C 95.257812 -126.015625 93 -125.632812 90.40625 -124.375 C 87.820312 -123.113281 85.238281 -121.335938 82.65625 -119.046875 C 80.070312 -116.765625 77.835938 -114.582031 75.953125 -112.5 C 74.078125 -110.414062 72.847656 -108.878906 72.265625 -107.890625 C 70.585938 -104.078125 69.054688 -99.90625 67.671875 -95.375 C 71.117188 -95.625 74.269531 -96.453125 77.125 -97.859375 C 79.988281 -99.265625 82.796875 -101.066406 85.546875 -103.265625 Z M 85.546875 -103.265625 "/></g></g></g><g fill="#1b1b1b" fill-opacity="1"><g transform="translate(607.862116, 420.71966)"><g><path d="M 167.0625 -130.578125 C 169.988281 -123.304688 171.507812 -115.453125 171.625 -107.015625 C 171.75 -98.578125 171.015625 -90.195312 169.421875 -81.875 C 167.828125 -73.550781 165.828125 -65.863281 163.421875 -58.8125 C 159.816406 -47.957031 154.550781 -38.003906 147.625 -28.953125 C 140.707031 -19.898438 132.242188 -12.488281 122.234375 -6.71875 C 112.617188 -1.257812 101.972656 2.117188 90.296875 3.421875 C 78.617188 4.722656 67.75 2.785156 57.6875 -2.390625 C 50.976562 -5.796875 45.441406 -10.472656 41.078125 -16.421875 C 36.722656 -22.367188 33.328125 -28.890625 30.890625 -35.984375 C 28.460938 -43.085938 26.972656 -50.15625 26.421875 -57.1875 C 25.671875 -64.957031 25.953125 -73.71875 27.265625 -83.46875 C 28.585938 -93.226562 30.953125 -103.023438 34.359375 -112.859375 C 37.773438 -122.691406 42.171875 -131.664062 47.546875 -139.78125 C 52.929688 -147.894531 59.398438 -154.253906 66.953125 -158.859375 C 74.878906 -164.628906 83.8125 -168.140625 93.75 -169.390625 C 103.6875 -170.640625 113.550781 -169.953125 123.34375 -167.328125 C 133.144531 -164.710938 141.929688 -160.265625 149.703125 -153.984375 C 157.484375 -147.703125 163.269531 -139.898438 167.0625 -130.578125 Z M 104.21875 -40.015625 C 110.863281 -44.421875 116.191406 -49.972656 120.203125 -56.671875 C 124.210938 -63.378906 127.222656 -70.59375 129.234375 -78.3125 C 131.253906 -86.039062 132.390625 -93.695312 132.640625 -101.28125 C 132.910156 -108.882812 131.039062 -115.457031 127.03125 -121 C 123.019531 -126.550781 117.039062 -129.914062 109.09375 -131.09375 C 104.707031 -131.84375 100.257812 -131.472656 95.75 -129.984375 C 91.25 -128.492188 87.34375 -126.207031 84.03125 -123.125 C 80.28125 -119.4375 77.222656 -114.753906 74.859375 -109.078125 C 72.503906 -103.410156 70.554688 -98.101562 69.015625 -93.15625 C 65.566406 -82.101562 64.257812 -70.867188 65.09375 -59.453125 C 65.382812 -56.109375 65.972656 -52.707031 66.859375 -49.25 C 67.742188 -45.800781 69.363281 -42.835938 71.71875 -40.359375 C 75.5625 -36.398438 80.382812 -34.40625 86.1875 -34.375 C 92 -34.34375 97.316406 -35.734375 102.140625 -38.546875 C 102.734375 -38.960938 103.425781 -39.453125 104.21875 -40.015625 Z M 104.21875 -40.015625 "/></g></g></g></svg>